# xmcd
#
# Track frame offsets:
#	150
#	25535
#	41916
#	61706
#	84004
#	102425
#	119532
#	137479
#	158751
#	180058
#	199434
#	220191
#
# Disc length: 3225 seconds
#
# Revision: 1
# Processed by: cddbd v1.5.2PL0 Copyright (c) Steve Scherf et al.
# Submitted via: EasyCDDAExtractor 2010.6.0.0
#
DISCID=940c970c
DTITLE=Various Artist - Deus De Providencia
DYEAR=2008
DGENRE=Gospel
TTITLE0=Gisele Nascimento - Deus De Milagres
TTITLE1=Gisele Nascimento - Deus Tem Palavra
TTITLE2=Gisele Nascimento - Eu Profetizo
TTITLE3=Gisele Nascimento - Nao Vou Parar
TTITLE4=Gisele Nascimento (Part. Esp. Tuca Nascimento) - Vida De Oracao
TTITLE5=Gisele Nascimento - Quando A Musica Tocar
TTITLE6=Gisele Nascimento - Deus Forte
TTITLE7=Gisele Nascimento - Estou Em Tuas Maos
TTITLE8=Gisele Nascimento - Sonhos
TTITLE9=Gisele Nascimento - Seja Um Campeao
TTITLE10=Gisele Nascimento - Minha Graca Te Basta
TTITLE11=Gisele Nascimento - Meu Amor
EXTD=
EXTT0=
EXTT1=
EXTT2=
EXTT3=
EXTT4=
EXTT5=
EXTT6=
EXTT7=
EXTT8=
EXTT9=
EXTT10=
EXTT11=
PLAYORDER=
